<?xml version="1.0" encoding="UTF-8" standalone="no"?>
<svg
   xmlns:dc="http://purl.org/dc/elements/1.1/"
   xmlns:cc="http://creativecommons.org/ns#"
   xmlns:rdf="http://www.w3.org/1999/02/22-rdf-syntax-ns#"
   xmlns:svg="http://www.w3.org/2000/svg"
   xmlns="http://www.w3.org/2000/svg"
   xmlns:sodipodi="http://sodipodi.sourceforge.net/DTD/sodipodi-0.dtd"
   xmlns:inkscape="http://www.inkscape.org/namespaces/inkscape"
   version="1.1"
   id="svg2"
   viewBox="0 0 48 48.000001"
   height="48"
   width="48"
   inkscape:version="0.91 r13725"
   sodipodi:docname="icon.svg">
  <sodipodi:namedview
     pagecolor="#ffffff"
     bordercolor="#666666"
     borderopacity="1"
     objecttolerance="10"
     gridtolerance="10"
     guidetolerance="10"
     inkscape:pageopacity="0"
     inkscape:pageshadow="2"
     inkscape:window-width="1366"
     inkscape:window-height="717"
     id="namedview7"
     showgrid="false"
     inkscape:zoom="4.9166667"
     inkscape:cx="-10.983051"
     inkscape:cy="24.196503"
     inkscape:window-x="0"
     inkscape:window-y="27"
     inkscape:window-maximized="1"
     inkscape:current-layer="svg2" />
  <defs
     id="defs4" />
  <metadata
     id="metadata7">
    <rdf:RDF>
      <cc:Work
         rdf:about="">
        <dc:format>image/svg+xml</dc:format>
        <dc:type
           rdf:resource="http://purl.org/dc/dcmitype/StillImage" />
        <dc:title />
      </cc:Work>
    </rdf:RDF>
  </metadata>
  <path
     style="fill:#ffffff;fill-opacity:1"
     d="M 21.867188,0.32226562 C 17.115829,0.25516716 13.89077,4.6697534 10.667969,6.9101562 3.9294685,6.4758255 -0.74202216,14.783769 2.7207031,20.296875 -1.240623,24.058617 0.83624731,30.130911 4.2304688,33.492188 2.974516,41.492967 11.378233,48.12829 18.970703,46.488281 c 7.310305,0.08974 17.501315,1.276709 21.869141,-6.042969 1.198996,-3.459761 0.192908,-7.608701 3.458984,-10.048828 1.759546,-2.949139 0.391289,-6.563518 -0.648437,-9.265625 C 46.479175,15.465927 43.413117,6.7337449 36.193359,7.1386719 33.129109,7.9557529 33.158901,3.3559486 30.371094,2.5566406 27.896085,0.84137769 24.85206,0.13521388 21.867188,0.32226562 Z"
     id="path4137"
     inkscape:connector-curvature="0" />
  <g
     transform="matrix(0.78228629,0,0,0.78228629,4.6696249,-780.94071)"
     id="layer1">
    <path
       inkscape:connector-curvature="0"
       style="fill-opacity:1"
       d="m 7.5596401,1047.3972 -1.1191708,-10.9064 c -1.5889245,-0.227 -3.174365,-1.3824 -3.7941357,-2.544 -0.8088624,-1.5882 -0.8248571,-3.4 -0.044539,-5.0454 0.038728,-1.3172 2.8573823,-2.0225 2.7791341,-2.8069 l -1.0893426,-10.7212 19.3955819,6.4604 19.198775,-6.4635 -1.100673,10.7801 c 0.0033,0.71 1.338304,1.0272 1.956962,1.8031 0.745971,0.9668 1.16115,2.1807 1.16115,3.3948 0,1.4411 -0.516225,2.779 -1.438321,3.7278 -0.379615,0.6741 -2.717826,1.4254 -2.749554,1.5997 l -1.11047,10.7097 -16.08519,3.3482 z m 14.2215239,-22.7429 -13.6457035,-4.8072 0.7648437,7.0564 c 1.3481128,1.0314 2.2974658,2.959 2.3206178,4.4538 -0.189589,1.7381 -0.662005,2.7959 -1.6635408,4.0194 l 0.9536088,9.352 11.25763,2.2638 z m 14.913315,19.9338 0.904675,-9.0642 c -0.793141,-0.7908 -1.443343,-1.8368 -1.70058,-2.7694 -0.194138,-0.7299 -0.193543,-2.0454 0.0013,-2.7896 0.612414,-1.6151 1.286269,-2.4582 2.563719,-3.3258 l 0.609191,-6.7554 -13.610666,4.6116 -0.119083,22.5343 z m -19.864516,-36.0423 c 1.314886,-1.3165 2.71996,-2.122 4.467865,-2.5614 1.046158,-0.263 3.411095,-0.2787 4.396028,-0.029 2.055028,0.5203 3.709044,1.5264 5.089181,3.0956 1.364664,1.9119 2.194444,3.8543 2.234997,6.0047 l -9.509347,3.1377 -9.600688,-3.5742 c 0.566279,-2.1247 1.459653,-4.5799 2.921964,-6.0732 z"
       id="path4155" />
  </g>
</svg>
