<?xml version="1.0" encoding="UTF-8" standalone="no"?>
<svg
   xmlns:dc="http://purl.org/dc/elements/1.1/"
   xmlns:cc="http://creativecommons.org/ns#"
   xmlns:rdf="http://www.w3.org/1999/02/22-rdf-syntax-ns#"
   xmlns:svg="http://www.w3.org/2000/svg"
   xmlns="http://www.w3.org/2000/svg"
   version="1.1"
   id="svg2"
   viewBox="0 0 48 48.000001"
   height="48"
   width="48">
  <defs
     id="defs4" />
  <metadata
     id="metadata7">
    <rdf:RDF>
      <cc:Work
         rdf:about="">
        <dc:format>image/svg+xml</dc:format>
        <dc:type
           rdf:resource="http://purl.org/dc/dcmitype/StillImage" />
        <dc:title></dc:title>
      </cc:Work>
    </rdf:RDF>
  </metadata>
  <g
     transform="translate(0,-1004.3622)"
     id="layer1">
    <path
       id="path4145"
       d="m 31.79792,1021.3697 a 8.0742989,7.3822165 0 0 1 -8.074299,7.3822 8.0742989,7.3822165 0 0 1 -8.074298,-7.3822 8.0742989,7.3822165 0 0 1 8.074298,-7.3822 8.0742989,7.3822165 0 0 1 8.074299,7.3822 z"
       style="opacity:1;fill:#000000;fill-opacity:1;stroke:#000000;stroke-width:2.58377576;stroke-linecap:round;stroke-linejoin:round;stroke-miterlimit:4;stroke-dasharray:none;stroke-dashoffset:0;stroke-opacity:1" />
    <path
       id="rect4138"
       d="m 7.5750243,1020.2624 16.1485977,6.4594 0,17.0714 -16.1485977,-6.4595 z"
       style="opacity:1;fill:#ffffff;fill-opacity:1;stroke:#000000;stroke-width:2.58377576;stroke-linecap:round;stroke-linejoin:round;stroke-miterlimit:4;stroke-dasharray:none;stroke-dashoffset:0;stroke-opacity:1" />
    <path
       style="opacity:1;fill:#ffffff;fill-opacity:1;stroke:#000000;stroke-width:2.58377576;stroke-linecap:round;stroke-linejoin:round;stroke-miterlimit:4;stroke-dasharray:none;stroke-dashoffset:0;stroke-opacity:1"
       d="m 39.87222,1020.2624 -16.148598,6.4594 0,17.0714 16.148598,-6.4595 z"
       id="path4143" />
    <path
       id="path4147"
       d="m 177.06856,1024.4131 a 4.7292328,2.7683311 0 0 1 -4.72924,2.7683 4.7292328,2.7683311 0 0 1 -4.72923,-2.7683 4.7292328,2.7683311 0 0 1 4.72923,-2.7683 4.7292328,2.7683311 0 0 1 4.72924,2.7683 z"
       style="opacity:1;fill:#000000;fill-opacity:1;stroke:#000000;stroke-width:2.58377576;stroke-linecap:round;stroke-linejoin:round;stroke-miterlimit:4;stroke-dasharray:none;stroke-dashoffset:0;stroke-opacity:1"
       transform="matrix(0.98796968,0.15464772,-0.15464772,0.98796968,0,0)" />
    <path
       id="ellipse4149"
       d="m 129.73627,1031.8221 a 4.7292328,2.7683311 0 0 1 -4.72923,2.7684 4.7292328,2.7683311 0 0 1 -4.72923,-2.7684 4.7292328,2.7683311 0 0 1 4.72923,-2.7683 4.7292328,2.7683311 0 0 1 4.72923,2.7683 z"
       style="opacity:1;fill:#000000;fill-opacity:1;stroke:#000000;stroke-width:2.58377576;stroke-linecap:round;stroke-linejoin:round;stroke-miterlimit:4;stroke-dasharray:none;stroke-dashoffset:0;stroke-opacity:1"
       transform="matrix(-0.98796968,0.15464772,0.15464772,0.98796968,0,0)" />
    <path
       id="ellipse4170"
       d="m 23.71398,1007.6694 c -5.07116,-0.042 -10.019436,2.9144 -12.450664,7.3536 -2.0335683,-0.809 -4.480705,-1.2919 -6.507472,-0.1999 -2.4950904,1.4217 -3.6977918,4.5626 -3.1510927,7.3283 -0.1214425,5.1801 0.2926736,10.3857 -0.3486773,15.5383 -0.1101216,3.9307 2.7291301,7.6719 6.4867213,8.7556 2.5601347,1.0182 5.4622677,1.1493 8.1039467,0.3668 2.762433,1.0525 5.498172,2.7123 8.566336,2.4927 2.624908,-0.2308 4.866925,-1.7798 7.331517,-2.5416 4.643205,1.4335 10.191835,0.024 13.254783,-3.8381 1.835905,-2.2416 2.082589,-5.4907 1.004871,-8.1232 -0.248872,-0.7545 -0.09929,-1.595 -0.161787,-2.3885 -0.06336,-4.4654 0.260612,-8.952 -0.249971,-13.4002 -0.178355,-1.3852 -0.830603,-2.7325 -1.984945,-3.5585 -2.072604,-1.6407 -5.18043,-1.8472 -7.429183,-0.4422 -2.422822,-4.4507 -7.391172,-7.399 -12.464383,-7.3431 z"
       style="opacity:1;fill:#ffffff;fill-opacity:1;stroke:#ffffff;stroke-width:2.58377576;stroke-linecap:round;stroke-linejoin:round;stroke-miterlimit:4;stroke-dasharray:none;stroke-dashoffset:0;stroke-opacity:1" />
    <g
       transform="matrix(0.08074299,0,0,0.08074299,-1.8834405,986.73632)"
       id="g4161">
      <path
         id="ellipse4151"
         d="m 417.14285,428.93362 a 100,91.428574 0 0 1 -100,91.42858 100,91.428574 0 0 1 -100,-91.42858 100,91.428574 0 0 1 100,-91.42857 100,91.428574 0 0 1 100,91.42857 z"
         style="opacity:1;fill:#000000;fill-opacity:1;stroke:#000000;stroke-width:32;stroke-linecap:round;stroke-linejoin:round;stroke-miterlimit:4;stroke-dasharray:none;stroke-dashoffset:0;stroke-opacity:1" />
      <path
         id="path4153"
         d="m 117.14286,415.21936 200,80 0,211.42857 -200,-80 z"
         style="opacity:1;fill:#ffffff;fill-opacity:1;stroke:#000000;stroke-width:32;stroke-linecap:round;stroke-linejoin:round;stroke-miterlimit:4;stroke-dasharray:none;stroke-dashoffset:0;stroke-opacity:1" />
      <path
         style="opacity:1;fill:#ffffff;fill-opacity:1;stroke:#000000;stroke-width:32;stroke-linecap:round;stroke-linejoin:round;stroke-miterlimit:4;stroke-dasharray:none;stroke-dashoffset:0;stroke-opacity:1"
         d="m 517.14286,415.21936 -200,80 0,211.42857 200,-80 z"
         id="path4155" />
      <path
         id="ellipse4157"
         d="m 326.13124,610.03809 a 58.57143,34.285713 0 0 1 -58.57143,34.28571 58.57143,34.285713 0 0 1 -58.57143,-34.28571 58.57143,34.285713 0 0 1 58.57143,-34.28572 58.57143,34.285713 0 0 1 58.57143,34.28572 z"
         style="opacity:1;fill:#000000;fill-opacity:1;stroke:#000000;stroke-width:32;stroke-linecap:round;stroke-linejoin:round;stroke-miterlimit:4;stroke-dasharray:none;stroke-dashoffset:0;stroke-opacity:1"
         transform="matrix(0.98796967,0.15464774,-0.15464774,0.98796967,0,0)" />
      <path
         id="ellipse4159"
         d="m -306.16935,709.01263 a 58.57143,34.285713 0 0 1 -58.57143,34.28572 58.57143,34.285713 0 0 1 -58.57143,-34.28572 58.57143,34.285713 0 0 1 58.57143,-34.28571 58.57143,34.285713 0 0 1 58.57143,34.28571 z"
         style="opacity:1;fill:#000000;fill-opacity:1;stroke:#000000;stroke-width:32;stroke-linecap:round;stroke-linejoin:round;stroke-miterlimit:4;stroke-dasharray:none;stroke-dashoffset:0;stroke-opacity:1"
         transform="matrix(-0.98796967,0.15464774,0.15464774,0.98796967,0,0)" />
    </g>
  </g>
</svg>
